<svg width="826" height="234" viewBox="0 0 826 234" fill="none" xmlns="http://www.w3.org/2000/svg">
<path d="M5.11557 127.75C5.11557 119.069 6.82076 111.37 10.2311 104.653C13.7449 97.9352 18.4987 92.768 24.4927 89.1509C30.4867 85.5338 37.1525 83.7253 44.4899 83.7253C50.0706 83.7253 55.3928 84.9654 60.4567 87.4457C65.5206 89.8226 69.5511 93.0263 72.5481 97.0568V56.2872H94.5605V171H72.5481V158.289C69.8611 162.526 66.089 165.936 61.2318 168.52C56.3746 171.103 50.7423 172.395 44.3349 172.395C37.1008 172.395 30.4867 170.535 24.4927 166.815C18.4987 163.094 13.7449 157.875 10.2311 151.158C6.82076 144.337 5.11557 136.534 5.11557 127.75ZM72.7031 128.06C72.7031 122.79 71.6696 118.294 69.6027 114.574C67.5358 110.75 64.7455 107.856 61.2318 105.893C57.7181 103.826 53.946 102.792 49.9156 102.792C45.8851 102.792 42.1647 103.774 38.7543 105.738C35.3439 107.701 32.5536 110.595 30.3834 114.419C28.3165 118.139 27.283 122.583 27.283 127.75C27.283 132.917 28.3165 137.465 30.3834 141.392C32.5536 145.215 35.3439 148.161 38.7543 150.228C42.268 152.295 45.9885 153.328 49.9156 153.328C53.946 153.328 57.7181 152.346 61.2318 150.383C64.7455 148.316 67.5358 145.422 69.6027 141.702C71.6696 137.878 72.7031 133.331 72.7031 128.06ZM195.591 126.2C195.591 129.3 195.384 132.091 194.971 134.571H132.189C132.705 140.772 134.876 145.629 138.699 149.143C142.523 152.656 147.225 154.413 152.806 154.413C160.867 154.413 166.602 150.951 170.013 144.027H193.42C190.94 152.295 186.186 159.115 179.159 164.489C172.131 169.76 163.502 172.395 153.271 172.395C145.003 172.395 137.562 170.587 130.948 166.97C124.438 163.249 119.322 158.03 115.602 151.313C111.985 144.595 110.176 136.845 110.176 128.06C110.176 119.173 111.985 111.37 115.602 104.653C119.219 97.9352 124.283 92.768 130.793 89.1509C137.304 85.5338 144.797 83.7253 153.271 83.7253C161.435 83.7253 168.721 85.4821 175.128 88.9959C181.639 92.5096 186.651 97.5218 190.165 104.033C193.782 110.44 195.591 117.829 195.591 126.2ZM173.113 119.999C173.01 114.419 170.995 109.975 167.067 106.668C163.14 103.257 158.335 101.552 152.651 101.552C147.277 101.552 142.73 103.206 139.009 106.513C135.392 109.717 133.17 114.212 132.344 119.999H173.113ZM244.295 172.395C237.268 172.395 230.964 171.155 225.383 168.675C219.802 166.091 215.359 162.629 212.051 158.289C208.848 153.948 207.091 149.143 206.781 143.872H228.638C229.052 147.179 230.654 149.918 233.444 152.088C236.338 154.258 239.903 155.343 244.14 155.343C248.274 155.343 251.478 154.516 253.751 152.863C256.128 151.209 257.317 149.091 257.317 146.507C257.317 143.717 255.87 141.65 252.976 140.307C250.186 138.86 245.69 137.31 239.49 135.656C233.082 134.106 227.812 132.504 223.678 130.851C219.647 129.197 216.134 126.665 213.137 123.255C210.243 119.844 208.796 115.245 208.796 109.458C208.796 104.704 210.14 100.364 212.827 96.4367C215.617 92.5096 219.544 89.4093 224.608 87.1357C229.775 84.8621 235.821 83.7253 242.745 83.7253C252.976 83.7253 261.14 86.3089 267.238 91.4762C273.335 96.54 276.694 103.412 277.314 112.093H256.541C256.231 108.683 254.785 105.996 252.201 104.033C249.721 101.966 246.362 100.932 242.125 100.932C238.198 100.932 235.149 101.656 232.979 103.102C230.912 104.549 229.878 106.564 229.878 109.148C229.878 112.042 231.325 114.264 234.219 115.814C237.113 117.261 241.608 118.759 247.705 120.309C253.906 121.86 259.022 123.461 263.052 125.115C267.083 126.768 270.545 129.352 273.438 132.866C276.435 136.276 277.985 140.823 278.089 146.507C278.089 151.468 276.694 155.912 273.903 159.839C271.216 163.766 267.289 166.866 262.122 169.14C257.058 171.31 251.116 172.395 244.295 172.395ZM317.606 97.5218C320.396 93.5947 324.22 90.3394 329.077 87.7557C334.038 85.0688 339.67 83.7253 345.974 83.7253C353.312 83.7253 359.926 85.5338 365.816 89.1509C371.81 92.768 376.513 97.9352 379.923 104.653C383.437 111.267 385.194 118.966 385.194 127.75C385.194 136.534 383.437 144.337 379.923 151.158C376.513 157.875 371.81 163.094 365.816 166.815C359.926 170.535 353.312 172.395 345.974 172.395C339.67 172.395 334.09 171.103 329.232 168.52C324.479 165.936 320.603 162.681 317.606 158.754V211.925H295.904V85.1204H317.606V97.5218ZM363.026 127.75C363.026 122.583 361.941 118.139 359.771 114.419C357.704 110.595 354.914 107.701 351.4 105.738C347.99 103.774 344.269 102.792 340.239 102.792C336.312 102.792 332.591 103.826 329.077 105.893C325.667 107.856 322.877 110.75 320.706 114.574C318.64 118.397 317.606 122.893 317.606 128.06C317.606 133.227 318.64 137.723 320.706 141.547C322.877 145.37 325.667 148.316 329.077 150.383C332.591 152.346 336.312 153.328 340.239 153.328C344.269 153.328 347.99 152.295 351.4 150.228C354.914 148.161 357.704 145.215 359.771 141.392C361.941 137.568 363.026 133.021 363.026 127.75ZM480.798 126.2C480.798 129.3 480.591 132.091 480.178 134.571H417.396C417.913 140.772 420.083 145.629 423.907 149.143C427.731 152.656 432.433 154.413 438.013 154.413C446.074 154.413 451.81 150.951 455.22 144.027H478.628C476.148 152.295 471.394 159.115 464.366 164.489C457.339 169.76 448.71 172.395 438.478 172.395C430.211 172.395 422.77 170.587 416.156 166.97C409.645 163.249 404.53 158.03 400.809 151.313C397.192 144.595 395.384 136.845 395.384 128.06C395.384 119.173 397.192 111.37 400.809 104.653C404.426 97.9352 409.49 92.768 416.001 89.1509C422.512 85.5338 430.004 83.7253 438.478 83.7253C446.643 83.7253 453.928 85.4821 460.336 88.9959C466.847 92.5096 471.859 97.5218 475.373 104.033C478.99 110.44 480.798 117.829 480.798 126.2ZM458.321 119.999C458.217 114.419 456.202 109.975 452.275 106.668C448.348 103.257 443.542 101.552 437.858 101.552C432.484 101.552 427.937 103.206 424.217 106.513C420.6 109.717 418.378 114.212 417.551 119.999H458.321ZM516.481 153.173H554.77V171H491.833V153.483L529.348 102.947H491.988V85.1204H554.305V102.637L516.481 153.173ZM591.416 153.173H629.705V171H566.768V153.483L604.283 102.947H566.923V85.1204H629.24V102.637L591.416 153.173ZM640.928 127.75C640.928 119.069 642.634 111.37 646.044 104.653C649.558 97.9352 654.26 92.768 660.151 89.1509C666.145 85.5338 672.81 83.7253 680.148 83.7253C686.555 83.7253 692.136 85.0171 696.89 87.6007C701.747 90.1843 705.622 93.4397 708.516 97.3668V85.1204H730.373V171H708.516V158.444C705.726 162.474 701.85 165.833 696.89 168.52C692.033 171.103 686.4 172.395 679.993 172.395C672.759 172.395 666.145 170.535 660.151 166.815C654.26 163.094 649.558 157.875 646.044 151.158C642.634 144.337 640.928 136.534 640.928 127.75ZM708.516 128.06C708.516 122.79 707.483 118.294 705.416 114.574C703.349 110.75 700.558 107.856 697.045 105.893C693.531 103.826 689.759 102.792 685.728 102.792C681.698 102.792 677.978 103.774 674.567 105.738C671.157 107.701 668.367 110.595 666.196 114.419C664.129 118.139 663.096 122.583 663.096 127.75C663.096 132.917 664.129 137.465 666.196 141.392C668.367 145.215 671.157 148.161 674.567 150.228C678.081 152.295 681.801 153.328 685.728 153.328C689.759 153.328 693.531 152.346 697.045 150.383C700.558 148.316 703.349 145.422 705.416 141.702C707.483 137.878 708.516 133.331 708.516 128.06ZM784.433 172.395C777.406 172.395 771.102 171.155 765.521 168.675C759.941 166.091 755.497 162.629 752.19 158.289C748.986 153.948 747.229 149.143 746.919 143.872H768.777C769.19 147.179 770.792 149.918 773.582 152.088C776.476 154.258 780.041 155.343 784.278 155.343C788.412 155.343 791.616 154.516 793.889 152.863C796.266 151.209 797.455 149.091 797.455 146.507C797.455 143.717 796.008 141.65 793.114 140.307C790.324 138.86 785.828 137.31 779.628 135.656C773.22 134.106 767.95 132.504 763.816 130.851C759.786 129.197 756.272 126.665 753.275 123.255C750.381 119.844 748.934 115.245 748.934 109.458C748.934 104.704 750.278 100.364 752.965 96.4367C755.755 92.5096 759.682 89.4093 764.746 87.1357C769.913 84.8621 775.959 83.7253 782.883 83.7253C793.114 83.7253 801.278 86.3089 807.376 91.4762C813.473 96.54 816.832 103.412 817.452 112.093H796.68C796.37 108.683 794.923 105.996 792.339 104.033C789.859 101.966 786.5 100.932 782.263 100.932C778.336 100.932 775.287 101.656 773.117 103.102C771.05 104.549 770.017 106.564 770.017 109.148C770.017 112.042 771.463 114.264 774.357 115.814C777.251 117.261 781.746 118.759 787.844 120.309C794.044 121.86 799.16 123.461 803.19 125.115C807.221 126.768 810.683 129.352 813.577 132.866C816.574 136.276 818.124 140.823 818.227 146.507C818.227 151.468 816.832 155.912 814.042 159.839C811.355 163.766 807.427 166.866 802.26 169.14C797.196 171.31 791.254 172.395 784.433 172.395Z" fill="#153525"/>
<circle cx="683.148" cy="217.148" r="16.1476" fill="#1BD174"/>
<circle cx="740.443" cy="217.148" r="16.1476" fill="#1BD174"/>
<circle cx="797.738" cy="217.148" r="16.1476" fill="#1BD174"/>
</svg>
