<svg width="173" height="42" viewBox="0 0 173 42" fill="none" xmlns="http://www.w3.org/2000/svg">
<path fill-rule="evenodd" clip-rule="evenodd" d="M15.8822 0.3667C14.7821 0.923761 13.3209 1.99143 12.5049 2.83451C10.5078 4.89759 9.43665 7.26923 9.17936 10.1974C9.101 11.0894 9.14565 11.6264 9.42934 13.2046C9.52267 13.7234 10.0513 15.0881 10.412 15.7415C11.4255 17.5771 13.4476 19.1575 15.6416 19.8286C17.2296 20.3145 17.5245 20.3907 18.6418 20.6036C19.2805 20.7253 19.9386 20.8621 20.1042 20.9075C20.2697 20.9529 20.7923 21.0702 21.2654 21.168C22.0568 21.3318 22.4854 21.4361 23.4159 21.691C24.595 22.0141 26.0951 22.6215 26.7883 23.0566C27.0702 23.2336 27.1236 23.0951 26.8965 22.7755C26.7325 22.5449 25.8156 21.6716 25.1105 21.0747C24.8461 20.8509 24.0333 20.2521 23.6309 19.9847C23.418 19.8432 23.0537 19.5951 22.8214 19.4334C22.5892 19.2716 21.9118 18.8101 21.3161 18.4077C19.6546 17.2852 18.3288 16.2588 17.5209 15.4694C16.7948 14.7599 15.7431 13.5119 15.6524 13.2523C15.6266 13.1784 15.5407 13.0405 15.4616 12.9459C15.0909 12.5026 14.5876 11.0863 14.331 9.76413C14.2218 9.20156 14.2297 7.33899 14.344 6.67294C14.4868 5.84157 14.9749 3.86132 15.0482 3.81599C15.0849 3.79328 15.115 3.71732 15.115 3.64713C15.115 3.57702 15.2366 3.25996 15.3851 2.94255C15.5336 2.62522 15.7223 2.21069 15.8044 2.02145C15.8865 1.83221 16.1477 1.32143 16.3849 0.886428C16.778 0.165673 16.83 0 16.6636 0C16.6321 0 16.2805 0.164985 15.8822 0.3667ZM2.67381 7.11809C2.00304 8.16211 1.2182 9.89875 0.833863 11.1891C0.189149 13.3539 0.0423131 14.3474 0.0082495 16.7738C-0.0159219 18.4979 0.00403506 18.85 0.191299 19.9995C0.555074 22.2328 1.12461 24.0775 1.99736 25.8488C3.6583 29.2198 6.36817 31.9326 9.43777 33.2973C9.65066 33.3919 9.89238 33.5065 9.97496 33.5519C10.0575 33.5973 10.4059 33.7271 10.7491 33.8402C12.4593 34.4043 13.5392 34.6135 16.3193 34.9197C19.6 35.2809 20.8265 35.5165 22.2158 36.0522C22.6911 36.2355 23.2634 36.5018 23.4875 36.6439C23.7116 36.786 23.9187 36.9023 23.9477 36.9023C24.0338 36.9023 24.7556 37.4971 25.2955 38.0128C26.1574 38.8362 26.9275 39.8686 27.627 41.1387C27.8028 41.458 27.9962 41.7193 28.0566 41.7193C28.1734 41.7193 29.3654 40.4587 29.8552 39.8173C30.8284 38.5426 31.5648 37.0089 31.9253 35.5056C32.1195 34.6963 32.1468 34.397 32.1468 33.0848C32.1468 31.717 32.1253 31.502 31.8975 30.5999C31.0676 27.3139 28.4712 24.5389 24.9642 23.1898C24.6331 23.0624 24.2847 22.9256 24.1901 22.8858C23.5587 22.6205 22.1517 22.3485 19.287 21.9381C17.6886 21.7091 17.3281 21.6467 16.4483 21.4468C15.9279 21.3286 15.2699 21.1615 14.986 21.0754C14.7021 20.9892 14.3925 20.899 14.2979 20.8748C13.5159 20.675 11.7285 19.8342 11.0085 19.3275C10.7606 19.153 10.5353 19.0103 10.5078 19.0103C10.4802 19.0103 10.4038 18.9619 10.3378 18.9027C10.2719 18.8436 10.1678 18.7565 10.1066 18.7092C9.96437 18.5994 8.73542 17.533 8.61946 17.4189C8.57147 17.3716 8.31977 17.0813 8.06025 16.7738C7.80073 16.4662 7.56633 16.1953 7.53932 16.1716C7.20101 15.8748 5.92809 13.8024 5.3731 12.6448C4.45553 10.7309 4.03171 9.60723 3.33702 7.24712C3.23604 6.90408 3.11699 6.62348 3.07251 6.62348C3.02804 6.62348 2.84861 6.8461 2.67381 7.11809Z" fill="url(#paint0_linear_5_96)"/>
<path d="M40.9545 16.0865H38.9512L42.0036 7.24434H44.4128L47.4609 16.0865H45.4576L43.2427 9.26491H43.1737L40.9545 16.0865ZM40.8293 12.611H45.5612V14.0703H40.8293V12.611ZM53.12 9.78733C53.0855 9.43905 52.9373 9.16849 52.6753 8.97564C52.4134 8.7828 52.0579 8.68637 51.6089 8.68637C51.3038 8.68637 51.0462 8.72955 50.8361 8.8159C50.626 8.89937 50.4648 9.01594 50.3525 9.16561C50.2432 9.31528 50.1885 9.4851 50.1885 9.67507C50.1827 9.83338 50.2158 9.97154 50.2878 10.0896C50.3626 10.2076 50.4648 10.3097 50.5943 10.3961C50.7238 10.4796 50.8735 10.553 51.0433 10.6163C51.2131 10.6767 51.3945 10.7285 51.5873 10.7717L52.3817 10.9617C52.7674 11.048 53.1215 11.1632 53.4438 11.3071C53.7662 11.451 54.0454 11.628 54.2814 11.8381C54.5174 12.0482 54.7002 12.2958 54.8297 12.5807C54.9621 12.8657 55.0298 13.1924 55.0327 13.5608C55.0298 14.1019 54.8916 14.5711 54.6182 14.9683C54.3476 15.3626 53.9562 15.6692 53.4438 15.8879C52.9344 16.1038 52.3199 16.2117 51.6003 16.2117C50.8865 16.2117 50.2647 16.1023 49.7351 15.8836C49.2084 15.6648 48.7968 15.341 48.5003 14.9122C48.2067 14.4804 48.0528 13.9465 48.0384 13.3104H49.8474C49.8675 13.6068 49.9524 13.8544 50.1021 14.053C50.2547 14.2487 50.4576 14.3969 50.7109 14.4977C50.967 14.5956 51.2563 14.6445 51.5787 14.6445C51.8953 14.6445 52.1702 14.5984 52.4033 14.5063C52.6393 14.4142 52.8221 14.2861 52.9516 14.1221C53.0812 13.958 53.1459 13.7695 53.1459 13.5565C53.1459 13.3579 53.0869 13.1909 52.9689 13.0557C52.8538 12.9204 52.684 12.8052 52.4595 12.7103C52.2378 12.6153 51.9658 12.5289 51.6435 12.4512L50.6807 12.2094C49.9352 12.0281 49.3466 11.7446 48.9148 11.3589C48.4831 10.9732 48.2686 10.4537 48.2715 9.80028C48.2686 9.26491 48.4111 8.79719 48.6989 8.3971C48.9896 7.99702 49.3883 7.68472 49.8949 7.46021C50.4015 7.2357 50.9771 7.12345 51.6219 7.12345C52.2781 7.12345 52.8509 7.2357 53.3402 7.46021C53.8324 7.68472 54.2152 7.99702 54.4887 8.3971C54.7621 8.79719 54.9031 9.2606 54.9118 9.78733H53.12ZM61.0868 9.78733C61.0523 9.43905 60.9041 9.16849 60.6421 8.97564C60.3802 8.7828 60.0247 8.68637 59.5757 8.68637C59.2706 8.68637 59.013 8.72955 58.8029 8.8159C58.5928 8.89937 58.4316 9.01594 58.3193 9.16561C58.21 9.31528 58.1553 9.4851 58.1553 9.67507C58.1495 9.83338 58.1826 9.97154 58.2546 10.0896C58.3294 10.2076 58.4316 10.3097 58.5611 10.3961C58.6906 10.4796 58.8403 10.553 59.0101 10.6163C59.18 10.6767 59.3613 10.7285 59.5541 10.7717L60.3486 10.9617C60.7342 11.048 61.0883 11.1632 61.4106 11.3071C61.733 11.451 62.0122 11.628 62.2482 11.8381C62.4843 12.0482 62.667 12.2958 62.7966 12.5807C62.929 12.8657 62.9966 13.1924 62.9995 13.5608C62.9966 14.1019 62.8584 14.5711 62.585 14.9683C62.3144 15.3626 61.923 15.6692 61.4106 15.8879C60.9012 16.1038 60.2867 16.2117 59.5671 16.2117C58.8533 16.2117 58.2316 16.1023 57.7019 15.8836C57.1752 15.6648 56.7636 15.341 56.4671 14.9122C56.1736 14.4804 56.0196 13.9465 56.0052 13.3104H57.8142C57.8343 13.6068 57.9193 13.8544 58.0689 14.053C58.2215 14.2487 58.4244 14.3969 58.6777 14.4977C58.9339 14.5956 59.2231 14.6445 59.5455 14.6445C59.8621 14.6445 60.137 14.5984 60.3701 14.5063C60.6062 14.4142 60.7889 14.2861 60.9185 14.1221C61.048 13.958 61.1127 13.7695 61.1127 13.5565C61.1127 13.3579 61.0537 13.1909 60.9357 13.0557C60.8206 12.9204 60.6508 12.8052 60.4263 12.7103C60.2046 12.6153 59.9326 12.5289 59.6103 12.4512L58.6475 12.2094C57.902 12.0281 57.3134 11.7446 56.8816 11.3589C56.4499 10.9732 56.2354 10.4537 56.2383 9.80028C56.2354 9.26491 56.3779 8.79719 56.6657 8.3971C56.9565 7.99702 57.3551 7.68472 57.8617 7.46021C58.3683 7.2357 58.9439 7.12345 59.5887 7.12345C60.2449 7.12345 60.8177 7.2357 61.307 7.46021C61.7992 7.68472 62.182 7.99702 62.4555 8.3971C62.7289 8.79719 62.87 9.2606 62.8786 9.78733H61.0868ZM64.2569 16.0865V7.24434H70.215V8.78567H66.1264V10.8926H69.9085V12.4339H66.1264V14.5452H70.2323V16.0865H64.2569ZM71.7013 7.24434H74.0069L76.4419 13.1852H76.5455L78.9806 7.24434H81.2861V16.0865H79.4728V10.3313H79.3994L77.1111 16.0433H75.8763L73.5881 10.3097H73.5147V16.0865H71.7013V7.24434ZM82.8264 16.0865V7.24434H86.3667C87.0172 7.24434 87.5598 7.34076 87.9944 7.53361C88.429 7.72646 88.7557 7.99414 88.9745 8.33666C89.1932 8.6763 89.3026 9.06775 89.3026 9.51101C89.3026 9.85641 89.2335 10.1601 89.0954 10.422C88.9572 10.681 88.7672 10.894 88.5254 11.061C88.2865 11.225 88.0131 11.3416 87.7051 11.4107V11.497C88.0419 11.5114 88.3571 11.6064 88.6507 11.782C88.9471 11.9576 89.1875 12.2037 89.3717 12.5203C89.5559 12.834 89.648 13.2082 89.648 13.6428C89.648 14.112 89.5314 14.5308 89.2983 14.8992C89.068 15.2648 88.7269 15.554 88.275 15.767C87.8231 15.98 87.2662 16.0865 86.6042 16.0865H82.8264ZM84.6958 14.5581H86.2199C86.7409 14.5581 87.1208 14.4588 87.3597 14.2602C87.5986 14.0587 87.7181 13.7911 87.7181 13.4572C87.7181 13.2125 87.6591 12.9966 87.5411 12.8096C87.423 12.6225 87.2547 12.4757 87.0359 12.3692C86.82 12.2627 86.5624 12.2094 86.2631 12.2094H84.6958V14.5581ZM84.6958 10.9444H86.0818C86.3379 10.9444 86.5653 10.8998 86.7639 10.8106C86.9654 10.7185 87.1237 10.5889 87.2388 10.422C87.3568 10.2551 87.4159 10.055 87.4159 9.82187C87.4159 9.50237 87.3022 9.24477 87.0748 9.04904C86.8503 8.85331 86.5308 8.75545 86.1163 8.75545H84.6958V10.9444ZM90.8644 16.0865V7.24434H92.7339V14.5452H96.5246V16.0865H90.8644ZM97.7627 16.0865V7.24434H103.721V8.78567H99.6321V10.8926H103.414V12.4339H99.6321V14.5452H103.738V16.0865H97.7627ZM107.077 7.24434V16.0865H105.207V7.24434H107.077ZM110.139 16.0865H108.135L111.188 7.24434H113.597L116.645 16.0865H114.642L112.427 9.26491H112.358L110.139 16.0865ZM110.013 12.611H114.745V14.0703H110.013V12.611ZM123.658 16.0865H120.523V7.24434H123.684C124.573 7.24434 125.339 7.42135 125.981 7.77539C126.622 8.12654 127.116 8.63168 127.461 9.29082C127.81 9.94995 127.984 10.7386 127.984 11.6568C127.984 12.5779 127.81 13.3694 127.461 14.0314C127.116 14.6934 126.62 15.2014 125.972 15.5555C125.327 15.9095 124.556 16.0865 123.658 16.0865ZM122.393 14.4847H123.58C124.133 14.4847 124.598 14.3869 124.975 14.1911C125.355 13.9925 125.639 13.686 125.829 13.2715C126.022 12.8542 126.119 12.3159 126.119 11.6568C126.119 11.0034 126.022 10.4695 125.829 10.055C125.639 9.64053 125.356 9.33543 124.979 9.13971C124.602 8.94398 124.137 8.84612 123.584 8.84612H122.393V14.4847ZM129.369 16.0865V7.24434H135.327V8.78567H131.238V10.8926H135.02V12.4339H131.238V14.5452H135.344V16.0865H129.369ZM142.762 16.0865H139.627V7.24434H142.787C143.677 7.24434 144.442 7.42135 145.084 7.77539C145.726 8.12654 146.22 8.63168 146.565 9.29082C146.913 9.94995 147.088 10.7386 147.088 11.6568C147.088 12.5779 146.913 13.3694 146.565 14.0314C146.22 14.6934 145.723 15.2014 145.076 15.5555C144.431 15.9095 143.66 16.0865 142.762 16.0865ZM141.496 14.4847H142.684C143.236 14.4847 143.701 14.3869 144.078 14.1911C144.458 13.9925 144.743 13.686 144.933 13.2715C145.126 12.8542 145.222 12.3159 145.222 11.6568C145.222 11.0034 145.126 10.4695 144.933 10.055C144.743 9.64053 144.46 9.33543 144.083 9.13971C143.706 8.94398 143.241 8.84612 142.688 8.84612H141.496V14.4847ZM148.472 16.0865V7.24434H154.431V8.78567H150.342V10.8926H154.124V12.4339H150.342V14.5452H154.448V16.0865H148.472ZM161.378 7.24434H163.248V12.9866C163.248 13.6313 163.094 14.1955 162.786 14.679C162.481 15.1626 162.053 15.5396 161.504 15.8102C160.954 16.0779 160.313 16.2117 159.582 16.2117C158.848 16.2117 158.207 16.0779 157.657 15.8102C157.107 15.5396 156.68 15.1626 156.374 14.679C156.069 14.1955 155.917 13.6313 155.917 12.9866V7.24434H157.786V12.8268C157.786 13.1636 157.86 13.4629 158.006 13.7249C158.156 13.9868 158.366 14.1926 158.637 14.3423C158.907 14.4919 159.223 14.5668 159.582 14.5668C159.945 14.5668 160.26 14.4919 160.528 14.3423C160.798 14.1926 161.007 13.9868 161.154 13.7249C161.304 13.4629 161.378 13.1636 161.378 12.8268V7.24434ZM169.583 9.78733C169.548 9.43905 169.4 9.16849 169.138 8.97564C168.876 8.7828 168.521 8.68637 168.072 8.68637C167.766 8.68637 167.509 8.72955 167.299 8.8159C167.089 8.89937 166.927 9.01594 166.815 9.16561C166.706 9.31528 166.651 9.4851 166.651 9.67507C166.645 9.83338 166.678 9.97154 166.75 10.0896C166.825 10.2076 166.927 10.3097 167.057 10.3961C167.187 10.4796 167.336 10.553 167.506 10.6163C167.676 10.6767 167.857 10.7285 168.05 10.7717L168.844 10.9617C169.23 11.048 169.584 11.1632 169.907 11.3071C170.229 11.451 170.508 11.628 170.744 11.8381C170.98 12.0482 171.163 12.2958 171.292 12.5807C171.425 12.8657 171.492 13.1924 171.495 13.5608C171.492 14.1019 171.354 14.5711 171.081 14.9683C170.81 15.3626 170.419 15.6692 169.907 15.8879C169.397 16.1038 168.783 16.2117 168.063 16.2117C167.349 16.2117 166.727 16.1023 166.198 15.8836C165.671 15.6648 165.259 15.341 164.963 14.9122C164.669 14.4804 164.515 13.9465 164.501 13.3104H166.31C166.33 13.6068 166.415 13.8544 166.565 14.053C166.717 14.2487 166.92 14.3969 167.174 14.4977C167.43 14.5956 167.719 14.6445 168.041 14.6445C168.358 14.6445 168.633 14.5984 168.866 14.5063C169.102 14.4142 169.285 14.2861 169.414 14.1221C169.544 13.958 169.609 13.7695 169.609 13.5565C169.609 13.3579 169.55 13.1909 169.432 13.0557C169.316 12.9204 169.147 12.8052 168.922 12.7103C168.701 12.6153 168.429 12.5289 168.106 12.4512L167.143 12.2094C166.398 12.0281 165.809 11.7446 165.377 11.3589C164.946 10.9732 164.731 10.4537 164.734 9.80028C164.731 9.26491 164.874 8.79719 165.162 8.3971C165.452 7.99702 165.851 7.68472 166.358 7.46021C166.864 7.2357 167.44 7.12345 168.085 7.12345C168.741 7.12345 169.314 7.2357 169.803 7.46021C170.295 7.68472 170.678 7.99702 170.951 8.3971C171.225 8.79719 171.366 9.2606 171.374 9.78733H169.583Z" fill="black"/>
<path d="M38.9011 20.6699H44.2269L47.8902 29.5975H48.0749L51.7383 20.6699H57.0641V36.4317H52.8774V27.3194H52.7542L49.2448 36.3086H46.7204L43.211 27.2579H43.0878V36.4317H38.9011V20.6699ZM63.1864 36.4317H58.5687L63.7713 20.6699H69.6204L74.8231 36.4317H70.2053L66.7574 25.0106H66.6343L63.1864 36.4317ZM62.3244 30.2132H71.0057V33.4148H62.3244V30.2132ZM82.4057 36.4317H76.3411V20.6699H82.3442C83.9655 20.6699 85.3662 20.9855 86.5463 21.6166C87.7315 22.2425 88.6448 23.1455 89.2861 24.3256C89.9326 25.5006 90.2558 26.909 90.2558 28.5508C90.2558 30.1927 89.9352 31.6037 89.2938 32.7837C88.6525 33.9587 87.7443 34.8617 86.5694 35.4928C85.3944 36.1188 84.0065 36.4317 82.4057 36.4317ZM80.6202 32.7991H82.2518C83.0317 32.7991 83.6961 32.6734 84.2451 32.422C84.7992 32.1706 85.22 31.7371 85.5073 31.1214C85.7997 30.5057 85.946 29.6488 85.946 28.5508C85.946 27.4528 85.7972 26.596 85.4996 25.9803C85.2071 25.3646 84.7761 24.9311 84.2066 24.6797C83.6422 24.4282 82.9496 24.3025 82.1287 24.3025H80.6202V32.7991ZM101.563 20.6699H105.843V30.7673C105.843 31.9679 105.555 33.0069 104.981 33.8843C104.411 34.7565 103.616 35.4312 102.595 35.9084C101.574 36.3804 100.389 36.6164 99.0391 36.6164C97.6795 36.6164 96.4891 36.3804 95.4681 35.9084C94.4471 35.4312 93.6518 34.7565 93.0823 33.8843C92.5179 33.0069 92.2357 31.9679 92.2357 30.7673V20.6699H96.5148V30.3979C96.5148 30.8853 96.6225 31.3215 96.838 31.7063C97.0535 32.086 97.3511 32.3835 97.7308 32.599C98.1156 32.8145 98.5517 32.9223 99.0391 32.9223C99.5317 32.9223 99.9678 32.8145 100.347 32.599C100.727 32.3835 101.025 32.086 101.24 31.7063C101.456 31.3215 101.563 30.8853 101.563 30.3979V20.6699ZM107.876 36.4317V20.6699H114.68C115.85 20.6699 116.873 20.8829 117.75 21.3087C118.628 21.7346 119.31 22.3477 119.798 23.1481C120.285 23.9485 120.529 24.908 120.529 26.0265C120.529 27.1553 120.277 28.107 119.775 28.8818C119.277 29.6565 118.577 30.2414 117.674 30.6365C116.776 31.0316 115.726 31.2291 114.526 31.2291H110.462V27.9044H113.664C114.167 27.9044 114.595 27.8428 114.949 27.7196C115.308 27.5914 115.583 27.3887 115.773 27.1116C115.968 26.8346 116.065 26.4729 116.065 26.0265C116.065 25.575 115.968 25.2081 115.773 24.9259C115.583 24.6386 115.308 24.4282 114.949 24.2948C114.595 24.1563 114.167 24.087 113.664 24.087H112.155V36.4317H107.876ZM117.112 29.1973L121.052 36.4317H116.404L112.556 29.1973H117.112ZM122.353 36.4317V20.6699H133.712V24.1178H126.632V26.8269H133.127V30.2748H126.632V32.9838H133.682V36.4317H122.353ZM140.114 20.6699V36.4317H135.835V20.6699H140.114ZM142.142 36.4317V20.6699H148.945C150.115 20.6699 151.138 20.8829 152.016 21.3087C152.893 21.7346 153.576 22.3477 154.063 23.1481C154.55 23.9485 154.794 24.908 154.794 26.0265C154.794 27.1553 154.543 28.107 154.04 28.8818C153.542 29.6565 152.842 30.2414 151.939 30.6365C151.041 31.0316 149.992 31.2291 148.791 31.2291H144.728V27.9044H147.929C148.432 27.9044 148.86 27.8428 149.214 27.7196C149.574 27.5914 149.848 27.3887 150.038 27.1116C150.233 26.8346 150.33 26.4729 150.33 26.0265C150.33 25.575 150.233 25.2081 150.038 24.9259C149.848 24.6386 149.574 24.4282 149.214 24.2948C148.86 24.1563 148.432 24.087 147.929 24.087H146.421V36.4317H142.142ZM151.377 29.1973L155.317 36.4317H150.669L146.821 29.1973H151.377ZM160.713 36.4317H156.095L161.297 20.6699H167.147L172.349 36.4317H167.731L164.284 25.0106H164.16L160.713 36.4317ZM159.851 30.2132H168.532V33.4148H159.851V30.2132Z" fill="black"/>
<defs>
<linearGradient id="paint0_linear_5_96" x1="26.2789" y1="10.1073" x2="17.8246" y2="49.332" gradientUnits="userSpaceOnUse">
<stop stop-color="#FFD600"/>
<stop offset="1" stop-color="#FF3030"/>
</linearGradient>
</defs>
</svg>
